<?xml version="1.0" encoding="UTF-8"?>
<svg width="800" height="600" viewBox="0 0 800 600" fill="none" xmlns="http://www.w3.org/2000/svg">
  <!-- Background Elements -->
  <circle cx="400" cy="300" r="250" fill="#F0F9FF" />
  <circle cx="400" cy="300" r="200" fill="#E0F2FE" />
  
  <!-- Money Transfer Arrow -->
  <path d="M200 300 C 300 300, 500 300, 600 300" stroke="#2563EB" stroke-width="8" stroke-linecap="round"/>
  <path d="M550 250 L 600 300 L 550 350" stroke="#2563EB" stroke-width="8" stroke-linecap="round" stroke-linejoin="round"/>
  
  <!-- Dollar Signs -->
  <g transform="translate(150,250)">
    <circle cx="50" cy="50" r="40" fill="#22C55E"/>
    <text x="50" y="65" font-family="Arial" font-size="40" fill="white" text-anchor="middle">$</text>
  </g>
  
  <g transform="translate(550,250)">
    <circle cx="50" cy="50" r="40" fill="#22C55E"/>
    <text x="50" y="65" font-family="Arial" font-size="40" fill="white" text-anchor="middle">$</text>
  </g>
  
  <!-- Decorative Elements -->
  <circle cx="250" cy="150" r="10" fill="#60A5FA"/>
  <circle cx="550" cy="450" r="10" fill="#60A5FA"/>
  <circle cx="650" cy="200" r="8" fill="#60A5FA"/>
  <circle cx="150" cy="400" r="8" fill="#60A5FA"/>
  
  <!-- Speed Lines -->
  <line x1="300" y1="200" x2="320" y2="220" stroke="#60A5FA" stroke-width="3" stroke-linecap="round"/>
  <line x1="400" y1="400" x2="420" y2="420" stroke="#60A5FA" stroke-width="3" stroke-linecap="round"/>
  <line x1="500" y1="180" x2="520" y2="200" stroke="#60A5FA" stroke-width="3" stroke-linecap="round"/>
</svg> 